<svg width="10" height="10" viewBox="0 0 10 10" fill="none" xmlns="http://www.w3.org/2000/svg">
<g filter="url(#filter0_i_1079_133)">
<path d="M6.09961 2.50684C6.92793 2.50684 7.59944 3.17855 7.59961 4.00684C7.59961 4.18378 7.56835 4.35331 7.51172 4.51074C7.47546 4.61159 7.51078 4.72693 7.59668 4.79102C7.96297 5.06434 8.20004 5.50104 8.2002 5.99316C8.2002 6.82153 7.52853 7.49306 6.7002 7.49316H3.2998C2.47156 7.49295 1.7998 6.82146 1.7998 5.99316C1.79997 5.46337 2.07535 4.99813 2.49023 4.73145C2.55919 4.68712 2.60064 4.60932 2.59961 4.52734C2.59952 4.52055 2.59961 4.51364 2.59961 4.50684C2.59978 3.67862 3.27138 3.00694 4.09961 3.00684C4.30004 3.00685 4.49139 3.0465 4.66602 3.11816C4.76428 3.15847 4.88029 3.13046 4.94824 3.04883C5.2231 2.7184 5.63626 2.50701 6.09961 2.50684ZM4.95801 3.73828C4.76443 3.7547 4.60962 3.92162 4.30176 4.25488L3.95996 4.625C3.7391 4.86409 3.62811 4.98441 3.59375 5.07812C3.50205 5.32919 3.62447 5.60889 3.87109 5.71191C3.88565 5.71797 3.90243 5.72342 3.9209 5.72754C4.11067 5.76985 4.20537 5.7909 4.24805 5.83789C4.25434 5.84483 4.25829 5.84883 4.26367 5.85645C4.3003 5.90832 4.2998 5.98191 4.2998 6.12793V6.2002C4.2998 6.4805 4.30009 6.62085 4.36719 6.72168C4.39629 6.76523 4.43402 6.80288 4.47754 6.83203C4.57837 6.89941 4.71941 6.90039 5 6.90039C5.28029 6.90039 5.42068 6.8992 5.52148 6.83203C5.56508 6.8029 5.60268 6.76526 5.63184 6.72168C5.69909 6.62084 5.69922 6.48072 5.69922 6.2002V6.12793C5.69922 5.98191 5.6997 5.90832 5.73633 5.85645C5.7417 5.84885 5.74567 5.84482 5.75195 5.83789C5.79465 5.79092 5.88934 5.76986 6.0791 5.72754C6.09741 5.72346 6.11347 5.7179 6.12793 5.71191C6.3749 5.60902 6.49713 5.32938 6.40527 5.07812C6.37083 4.9844 6.25995 4.86412 6.03906 4.625L5.69727 4.25488C5.3893 3.9215 5.23479 3.75444 5.04102 3.73828C5.01374 3.73605 4.98528 3.73603 4.95801 3.73828Z" fill="white"/>
</g>
<defs>
<filter id="filter0_i_1079_133" x="0" y="0" width="10" height="10" filterUnits="userSpaceOnUse" color-interpolation-filters="sRGB">
<feFlood flood-opacity="0" result="BackgroundImageFix"/>
<feBlend mode="normal" in="SourceGraphic" in2="BackgroundImageFix" result="shape"/>
<feColorMatrix in="SourceAlpha" type="matrix" values="0 0 0 0 0 0 0 0 0 0 0 0 0 0 0 0 0 0 127 0" result="hardAlpha"/>
<feOffset/>
<feGaussianBlur stdDeviation="1"/>
<feComposite in2="hardAlpha" operator="arithmetic" k2="-1" k3="1"/>
<feColorMatrix type="matrix" values="0 0 0 0 0.942 0 0 0 0 0.94 0 0 0 0 1 0 0 0 0.1 0"/>
<feBlend mode="hard-light" in2="shape" result="effect1_innerShadow_1079_133"/>
</filter>
</defs>
</svg>
