<svg width="10" height="10" viewBox="0 0 10 10" fill="none" xmlns="http://www.w3.org/2000/svg">
<g filter="url(#filter0_i_1079_276)">
<path d="M6.13417 2.72876C7.05623 2.72876 7.51756 2.72895 7.84218 2.98071C7.88849 3.01664 7.93246 3.0556 7.97304 3.0979C8.25735 3.39434 8.30525 3.85302 8.40175 4.76978L8.44276 5.15649C8.56914 6.3571 8.63207 6.95738 8.37538 7.19556C8.33473 7.23326 8.30765 7.25388 8.26015 7.28247C7.96002 7.46279 7.31215 7.19956 6.01698 6.6731C5.65083 6.52426 5.2953 6.42896 4.98671 6.42896C4.6782 6.42903 4.32343 6.52431 3.95741 6.6731C2.66239 7.1995 2.01449 7.46255 1.71425 7.28247C1.66679 7.25391 1.63959 7.23319 1.59901 7.19556C1.34228 6.9574 1.40525 6.35716 1.53163 5.15649L1.57265 4.76978C1.66915 3.85302 1.71703 3.39434 2.00136 3.0979C2.04193 3.05561 2.08591 3.01663 2.13222 2.98071C2.45678 2.72905 2.91753 2.72876 3.83925 2.72876H6.13417ZM6.48769 5.02954C6.21154 5.02954 5.98769 5.2534 5.98769 5.52954C5.9879 5.8055 6.21167 6.02954 6.48769 6.02954C6.76341 6.02921 6.98748 5.8053 6.98769 5.52954C6.98769 5.25361 6.76354 5.02988 6.48769 5.02954ZM3.39296 3.46313C3.17237 3.46341 2.99369 3.64193 2.99355 3.86255C2.99355 3.92407 2.99355 3.95483 2.98905 3.9805C2.96725 4.10499 2.86978 4.20247 2.74529 4.22426C2.71961 4.22876 2.68885 4.22876 2.62733 4.22876H2.5873C2.36646 4.22885 2.1869 4.40829 2.1869 4.62915C2.18711 4.84983 2.36659 5.02848 2.5873 5.02856C2.68613 5.02856 2.73554 5.02856 2.77592 5.0401C2.87562 5.06857 2.95354 5.14649 2.98201 5.24619C2.99355 5.28657 2.99355 5.33598 2.99355 5.43481V5.46313C2.99382 5.68364 3.17245 5.86228 3.39296 5.86255C3.6137 5.86255 3.79307 5.68381 3.79335 5.46313V5.42212C3.79335 5.33513 3.79335 5.29164 3.8023 5.25582C3.82917 5.14832 3.91311 5.06439 4.02061 5.03752C4.05643 5.02856 4.09992 5.02856 4.1869 5.02856C4.40769 5.02856 4.58709 4.84989 4.5873 4.62915C4.5873 4.40824 4.40782 4.22876 4.1869 4.22876H4.15956C4.09804 4.22876 4.06728 4.22876 4.04161 4.22426C3.91712 4.20247 3.81964 4.10499 3.79785 3.9805C3.79335 3.95483 3.79335 3.92407 3.79335 3.86255C3.79321 3.64176 3.61378 3.46313 3.39296 3.46313ZM5.5873 4.12915C5.31115 4.12915 5.0873 4.35301 5.0873 4.62915C5.0873 4.90529 5.31115 5.12915 5.5873 5.12915C5.86333 5.12903 6.0873 4.90522 6.0873 4.62915C6.08729 4.35308 5.86333 4.12927 5.5873 4.12915ZM7.3871 4.12915C7.11105 4.12925 6.8871 4.35307 6.8871 4.62915C6.8871 4.90523 7.11104 5.12905 7.3871 5.12915C7.66314 5.12903 7.8871 4.90522 7.8871 4.62915C7.8871 4.35308 7.66314 4.12927 7.3871 4.12915ZM6.48769 3.22876C6.21167 3.22876 5.9879 3.4528 5.98769 3.72876C5.98769 4.0049 6.21154 4.22876 6.48769 4.22876C6.76355 4.22843 6.98769 4.0047 6.98769 3.72876C6.98747 3.453 6.76342 3.22909 6.48769 3.22876Z" fill="white"/>
</g>
<defs>
<filter id="filter0_i_1079_276" x="0" y="0" width="10" height="10" filterUnits="userSpaceOnUse" color-interpolation-filters="sRGB">
<feFlood flood-opacity="0" result="BackgroundImageFix"/>
<feBlend mode="normal" in="SourceGraphic" in2="BackgroundImageFix" result="shape"/>
<feColorMatrix in="SourceAlpha" type="matrix" values="0 0 0 0 0 0 0 0 0 0 0 0 0 0 0 0 0 0 127 0" result="hardAlpha"/>
<feOffset/>
<feGaussianBlur stdDeviation="1"/>
<feComposite in2="hardAlpha" operator="arithmetic" k2="-1" k3="1"/>
<feColorMatrix type="matrix" values="0 0 0 0 0.942 0 0 0 0 0.94 0 0 0 0 1 0 0 0 0.1 0"/>
<feBlend mode="hard-light" in2="shape" result="effect1_innerShadow_1079_276"/>
</filter>
</defs>
</svg>
