<svg width="10" height="10" viewBox="0 0 10 10" fill="none" xmlns="http://www.w3.org/2000/svg">
<g filter="url(#filter0_i_1142_1534)">
<path d="M5.5 2.43387C5.5 2.02714 5.5 1.82377 5.72325 1.71381C5.74562 1.70279 5.79211 1.68666 5.81649 1.68146C6.05988 1.6295 6.15166 1.74583 6.33524 1.9785C6.56377 2.26816 6.70018 2.63393 6.7002 3.03136C6.70012 3.54481 6.47164 4.00397 6.1113 4.31513C5.89013 4.50611 5.77955 4.6016 5.74396 4.67128C5.73702 4.68488 5.73543 4.68835 5.72968 4.70249C5.7002 4.77497 5.7002 4.87264 5.7002 5.06797V7.63097C5.7002 8.01756 5.38659 8.33115 5 8.33116C4.6134 8.33116 4.2998 8.01757 4.2998 7.63097V5.06917C4.2998 4.87384 4.2998 4.77618 4.27034 4.70372C4.26459 4.68957 4.26301 4.68612 4.25606 4.67251C4.2205 4.60285 4.10984 4.50724 3.8885 4.316C3.52814 4.00464 3.29988 3.54496 3.2998 3.03136C3.29982 2.63405 3.43622 2.26836 3.6647 1.97873C3.84829 1.74598 3.94009 1.62961 4.18349 1.68156C4.20788 1.68677 4.25436 1.70289 4.27673 1.71391C4.5 1.82387 4.5 2.02726 4.5 2.43405V2.83116C4.5 2.92409 4.5 2.97056 4.50769 3.0092C4.53925 3.16787 4.66329 3.29191 4.82196 3.32348C4.8606 3.33116 4.90707 3.33116 5 3.33116C5.09293 3.33116 5.1394 3.33116 5.17804 3.32348C5.33671 3.29191 5.46075 3.16787 5.49231 3.0092C5.5 2.97056 5.5 2.92409 5.5 2.83116V2.43387Z" fill="white"/>
</g>
<defs>
<filter id="filter0_i_1142_1534" x="0" y="0" width="10" height="10" filterUnits="userSpaceOnUse" color-interpolation-filters="sRGB">
<feFlood flood-opacity="0" result="BackgroundImageFix"/>
<feBlend mode="normal" in="SourceGraphic" in2="BackgroundImageFix" result="shape"/>
<feColorMatrix in="SourceAlpha" type="matrix" values="0 0 0 0 0 0 0 0 0 0 0 0 0 0 0 0 0 0 127 0" result="hardAlpha"/>
<feOffset/>
<feGaussianBlur stdDeviation="1"/>
<feComposite in2="hardAlpha" operator="arithmetic" k2="-1" k3="1"/>
<feColorMatrix type="matrix" values="0 0 0 0 0.942 0 0 0 0 0.94 0 0 0 0 1 0 0 0 0.1 0"/>
<feBlend mode="hard-light" in2="shape" result="effect1_innerShadow_1142_1534"/>
</filter>
</defs>
</svg>
